<?xml version="1.0" encoding="utf-8"?>
<!-- Svg Vector Icons : http://www.onlinewebfonts.com/icon -->
<!DOCTYPE svg PUBLIC "-//W3C//DTD SVG 1.1//EN" "http://www.w3.org/Graphics/SVG/1.1/DTD/svg11.dtd">
<svg version="1.1" xmlns="http://www.w3.org/2000/svg" xmlns:xlink="http://www.w3.org/1999/xlink" x="0px" y="0px" viewBox="0 0 1000 1000" enable-background="new 0 0 1000 1000" xml:space="preserve">
<metadata> Svg Vector Icons : http://www.onlinewebfonts.com/icon </metadata>
<g><g transform="matrix(1 0 0 -1 0 1008)"><path d="M990,394.3c0-36.9-12.3-69.4-36.9-97.2c2.6-9.7,3.9-20.7,3.9-33.1c0-43.4-16.9-80.4-50.6-110.8c-3.2-38.2-19.4-70.3-48.6-96.3C828.6,31,794.6,18,755.7,18H570c-85.6,0-178.9,20.7-280,62.2V18H10v630h280v-21.4l139,164.3c12.3,13.6,25.1,33.5,38.4,59.8c13.3,26.3,19.9,47.2,19.9,62.7c0,56.4,23,84.6,69,84.6H606c36.3,0,65-15.2,86-45.7c21.1-30.5,31.6-64.8,31.6-103.1c0-24.6-3.2-47.3-9.7-68.1c-6.5-20.7-13.4-37.4-20.9-50.1c-7.5-12.6-19.9-31.9-37.4-57.8h149.7c40.8,0,76.3-14.6,106.5-43.8c30.1-29.2,45.2-64.2,45.2-105c0-12.3-1.3-23.3-3.9-33.1C977.7,463.6,990,431.2,990,394.3z M255,53v560H45V53H255z M921.9,264c0,14.9-2.9,29.2-8.8,42.8c27.9,22.7,41.8,51.9,41.8,87.5s-13.9,64.8-41.8,87.5c5.8,13.6,8.8,27.9,8.8,42.8c0,31.1-11.5,57.8-34.5,80.2c-23,22.4-50.4,33.5-82.2,33.5H589.4c3.9,5.8,13.1,18.8,27.7,38.9c14.6,20.1,24.3,34.2,29.2,42.3c4.9,8.1,11.7,20.3,20.4,36.5c8.8,16.2,14.6,31.6,17.5,46.2s4.4,30.3,4.4,47.2c0,27.9-7.1,53.8-21.4,77.8c-14.3,24-34.7,36-61.3,36c-1.3,0-7.3,0.3-18,1c-10.7,0.6-18.6,0.6-23.8,0c-5.2-0.6-11.7-1.8-19.4-3.4c-7.8-1.6-13.4-5-17-10.2c-3.6-5.2-5.3-11.7-5.3-19.4c0-57-22-111.5-66.1-163.3L290,573.1v-455C387.2,74.7,480.6,53,570,53h185.7c31.8,0,59.5,11.2,83.1,33.5c23.7,22.4,34.8,49.1,33.5,80.2l-1,3.9C905.1,194,921.9,225.1,921.9,264z"/></g></g>
</svg>